<svg width="1256" height="348" viewBox="0 0 1256 348" fill="none" xmlns="http://www.w3.org/2000/svg">
<g clip-path="url(#clip0_58_68)">
<rect width="1256" height="348" rx="35" fill="white"/>
<path d="M1023.81 208.757C1000.06 248.975 962.491 237.336 951.23 228.156C946.404 231.374 937.981 238.566 926.815 237.714C902.873 235.916 894.356 201.754 894.356 201.754C894.545 201.849 887.259 204.309 883.284 204.214C883.189 214.245 874.578 238.187 851.204 237.903C824.991 237.525 819.597 198.442 819.597 198.442C819.597 198.442 816.947 202.038 807.011 205.634C807.484 197.969 807.105 236.673 775.688 237.241C750.799 237.714 744.081 197.779 744.081 197.779C744.081 197.779 739.727 202.227 731.4 203.836C731.968 195.981 731.021 237.336 699.604 237.241C678.311 237.146 671.119 212.637 671.687 209.23C672.444 204.877 664.495 237.809 643.865 237.336C635.348 237.052 629.008 230.901 625.034 222.668C619.734 228.819 611.974 237.336 603.268 237.336C587.654 237.336 580.746 224.276 581.976 186.991C582.071 182.544 581.787 180.84 577.339 180.178C574.689 179.705 572.04 178.948 569.106 178.475C568.16 181.503 560.4 236.295 533.714 237.336C524.724 237.714 519.898 229.954 515.828 224.182C509.677 232.32 501.539 237.619 489.899 237.619C470.216 237.619 456.873 221.721 456.873 202.133C456.873 182.544 470.216 166.646 489.899 166.646C493.401 166.646 494.347 167.119 497.564 168.065C491.035 108.636 506.46 99.3623 519.898 99.3623C532.862 99.3623 555.006 129.455 523.872 205.634C530.78 228.346 545.637 227.115 552.829 180.273C554.249 170.715 550.369 157.939 556.425 156.141C567.497 152.829 568.633 162.671 573.838 164.374C579.326 166.078 582.544 165.888 587.843 167.024C596.833 168.822 600.335 173.648 599.294 184.436C597.969 198.063 595.698 217.936 602.7 220.302C607.811 222.1 616.99 211.501 618.693 205.823C620.302 200.051 620.681 198.063 620.775 193.9C620.964 184.909 621.248 178.285 622.762 171.472C623.425 168.822 624.182 167.119 627.115 166.929C629.576 166.835 634.024 166.172 636.011 167.686C638.661 169.674 638.282 171.661 637.998 176.96C634.97 252.382 658.533 214.719 665.536 184.626C663.076 150.558 664.779 100.119 686.071 99.2676C697.143 98.7945 702.064 107.69 702.632 114.409C704.146 133.146 695.629 164.28 684.368 185.099C677.933 227.778 712.473 236.2 718.057 202.133C708.972 197.874 699.225 180.462 707.174 171.945C711.622 167.213 730.17 174.027 730.548 188.979C739.633 186.518 740.863 181.408 740.958 182.26C738.497 148.192 740.768 100.119 762.155 99.2676C773.227 98.7945 778.148 107.69 778.716 114.409C780.23 133.146 771.713 164.28 760.452 185.099C754.017 227.778 788.557 236.2 794.141 202.133C787.422 200.808 773.322 182.354 781.46 171.945C785.813 166.362 804.361 177.907 806.348 189.452C815.054 186.991 816.285 181.976 816.379 182.828C813.919 148.76 816.19 100.687 837.577 99.8354C848.649 99.3623 853.57 108.258 854.137 114.977C855.652 133.714 847.135 164.848 835.873 185.667C829.438 228.346 863.979 236.768 869.562 202.7C860.383 201.186 847.324 181.597 857.828 171.661C861.992 167.686 878.079 178.001 881.865 189.83C887.069 189.641 890.381 187.843 891.044 187.654C882.716 147.625 888.867 99.6462 911.863 99.2676C924.26 99.0784 936.467 105.986 931.073 144.029C925.963 180.367 907.699 195.603 907.699 195.792C908.74 200.145 918.109 236.579 941.767 217.368C940.536 214.624 939.306 211.785 938.644 208.378C934.764 188.411 942.429 165.888 963.343 162.198C975.361 160.116 986.622 165.983 988.42 179.042C991.354 200.524 971.954 216.138 964.573 219.545C961.261 217.652 994.571 239.039 1014.35 196.265C1015.48 193.805 1016.9 193.994 1018.7 195.319C1019.93 196.171 1027.12 202.984 1023.81 208.757ZM504.189 197.022C503.148 193.994 501.16 187.37 500.403 184.531C496.429 181.03 493.495 180.462 488.385 180.462C476.935 180.462 470.216 191.061 470.216 202.511C470.216 213.962 477.597 224.56 489.048 224.56C498.984 224.56 506.554 217.841 508.826 208.284C507.122 204.404 505.513 200.997 504.189 197.022ZM519.614 115.26C511.57 115.26 508.826 134.471 509.393 150.842C509.867 165.321 513.936 178.096 516.018 183.774C516.585 184.531 516.491 184.058 516.964 184.815C530.875 154.154 525.102 115.26 519.614 115.26ZM687.396 115.828C676.986 114.598 677.081 158.034 678.311 167.781C683.705 159.075 693.169 118.194 687.396 115.828ZM763.385 115.828C752.976 114.598 753.071 158.034 754.301 167.781C759.789 159.075 769.158 118.194 763.385 115.828ZM838.807 116.491C828.398 115.26 828.492 158.696 829.722 168.444C835.211 159.737 844.58 118.762 838.807 116.491ZM913.093 113.273C896.911 116.491 900.602 170.62 903.157 180.083C922.178 153.87 922.556 112.327 913.093 113.273ZM973.847 180.935C972.995 177.528 968.926 175.636 966.087 176.109C957.949 177.244 950 187.37 953.122 202.795C953.785 206.202 955.488 209.419 955.488 209.325C973.658 197.022 975.172 187.37 973.847 180.935ZM630.333 155.1C627.967 155.1 625.696 154.438 623.803 153.113C621.911 151.788 620.397 149.99 619.45 147.814C618.599 145.637 618.315 143.271 618.788 141C619.261 138.729 620.397 136.647 622.005 134.944C623.614 133.335 625.791 132.2 628.062 131.726C630.333 131.253 632.699 131.537 634.875 132.389C637.052 133.24 638.85 134.755 640.175 136.742C641.5 138.635 642.162 141 642.162 143.271C642.162 144.786 641.878 146.394 641.31 147.814C640.742 149.233 639.891 150.558 638.755 151.599C637.62 152.735 636.389 153.586 634.97 154.154C633.456 154.722 631.942 155.1 630.333 155.1Z" fill="#0D0C22"/>
<g clip-path="url(#clip1_58_68)">
<path d="M201 68H413V280H201V68Z" fill="#E84C88"/>
<path d="M307 248.608C266.027 248.608 232.392 215.177 232.392 174C232.392 132.823 266.027 99.3923 307 99.3923C347.973 99.3923 381.608 133.027 381.608 174C381.608 214.973 348.177 248.608 307 248.608ZM369.988 184.192C367.746 183.581 350.012 178.281 330.238 181.542C338.392 204.577 341.858 222.923 342.469 227C356.942 217.012 366.931 201.927 369.988 184.192ZM331.869 232.708C330.85 227 327.181 207.431 318.212 184.192H317.804C282.131 196.831 269.085 221.7 267.862 223.942C278.869 232.3 292.323 237.6 307 237.6C315.969 237.6 324.327 235.969 331.869 232.708ZM259.708 216.808C260.931 214.565 278.665 185.415 311.485 174.815C312.504 174.408 313.115 174.204 314.135 174.204C312.504 170.535 310.873 166.865 308.835 163.196C277.035 172.777 246.254 172.369 243.196 172.165V174.204C243.4 190.512 249.312 205.392 259.708 216.808ZM244.623 161.158C247.681 161.158 273.773 161.158 303.535 153.615C292.935 134.658 281.723 119.165 280.092 116.923C261.95 125.077 248.7 141.181 244.623 161.158ZM292.119 112.438C293.75 114.681 305.369 130.581 315.969 149.538C338.392 140.977 348.177 128.338 349.4 126.708C338.188 116.719 323.308 110.808 307.408 110.808C301.7 110.4 296.808 111.012 292.119 112.438ZM356.331 133.842C354.904 135.473 344.508 149.335 320.862 159.119C322.288 162.177 323.919 165.031 325.142 168.292C325.55 169.312 326.162 170.535 326.569 171.554C347.769 168.904 368.969 173.185 371.008 173.592C370.6 158.508 365.3 144.85 356.331 133.842Z" fill="white"/>
</g>
</g>
<defs>
<clipPath id="clip0_58_68">
<rect width="1256" height="348" rx="35" fill="white"/>
</clipPath>
<clipPath id="clip1_58_68">
<rect width="212" height="212" fill="white" transform="translate(201 68)"/>
</clipPath>
</defs>
</svg>
