<svg width="1256" height="349" viewBox="0 0 1256 349" fill="none" xmlns="http://www.w3.org/2000/svg">
<g clip-path="url(#clip0_58_4)">
<rect width="1256" height="348.078" rx="35" fill="white"/>
<path d="M251.137 254.948H218.616V173.875H196.462V147.48H218.615V128.698C218.615 106.441 228.414 90.4779 260.847 90.4779C267.707 90.4779 278.476 91.8606 278.476 91.8606V116.37H267.165C255.639 116.37 251.139 119.876 251.139 129.568V147.48H278.045L275.649 173.875H251.138L251.137 254.948ZM325.759 145.37C325.285 145.37 324.798 145.388 324.315 145.4C294.159 145.4 280.362 168.083 280.362 200.283C280.362 240.846 298.259 257.08 324.551 257.08C339.593 257.08 349.476 250.749 355.483 238.933V254.959H386.416V147.491H355.483V164.018C350.579 153.385 340.419 145.496 325.759 145.37ZM333.624 170.765C346.29 170.765 353.892 179.599 353.892 194.626L353.921 209.974C353.921 220.103 347.642 231.952 333.624 231.952C312.073 231.952 312.649 208.681 312.649 200.931C312.649 174.86 324.131 170.765 333.624 170.765ZM398.908 201.231C398.908 188.171 398.283 145.44 453.955 145.44C476.303 145.44 485.635 152.546 485.635 152.546L478.134 175.809C478.134 175.809 468.815 170.677 456.671 170.677C441.118 170.677 431.193 179.693 431.193 195.558L431.211 206.933C431.211 222.177 440.787 232.352 456.703 232.352C467.766 232.352 477.963 227.172 477.963 227.172L485.444 249.949C485.444 249.949 476.911 257.099 454.112 257.099C401.103 257.099 398.909 218.761 398.909 201.231H398.908ZM667.004 145.4C697.161 145.4 711.176 168.083 711.176 200.283C711.176 240.846 693.278 257.08 666.986 257.08C651.943 257.08 640.824 250.75 634.817 238.933V254.959L604.273 254.947V93.7455L636.702 90.9172V162.562C641.383 150.028 656.764 145.4 667.004 145.4ZM657.913 170.765C645.247 170.765 636.702 179.599 636.702 194.626L636.672 209.974C636.653 220.103 642.589 231.952 657.913 231.952C679.464 231.952 678.888 208.681 678.888 200.931C678.888 174.86 667.406 170.765 657.913 170.765ZM541.902 145.489C507.698 145.489 489.641 164.137 489.641 197.278V203.435C489.641 246.448 514.999 257.522 545.231 257.522C574.616 257.522 587.917 249.303 587.917 249.303L581.849 227.415C581.849 227.415 566.203 234.072 549.119 234.072C531.409 234.072 523.792 229.558 521.84 212.539H590.51V194.979C590.51 159.03 570.244 145.488 541.901 145.488L541.902 145.489ZM542.726 167.406C554.566 167.406 562.238 174.666 561.817 191.504H521.899C522.592 173.782 530.865 167.406 542.726 167.406ZM775.838 145.341C740.714 145.341 722.222 165.135 722.222 200.607C722.222 249.275 754.097 257.11 775.897 257.11C807.81 257.11 829.042 239.928 829.042 201.048C829.042 160.581 805.169 145.341 775.838 145.341ZM775.396 170.853C790.841 170.853 796.961 182.412 796.961 195.57V206.882C796.961 222.821 788.398 232.041 775.338 232.041C763.123 232.041 754.539 223.417 754.539 206.882V195.57C754.539 177.935 764.754 170.853 775.396 170.853ZM893.646 145.341C858.522 145.341 840.03 165.135 840.03 200.607C840.03 249.275 871.906 257.11 893.705 257.11C925.617 257.11 946.85 239.928 946.85 201.048C946.85 160.581 922.976 145.341 893.646 145.341ZM893.205 170.853C908.649 170.853 914.769 182.412 914.769 195.57V206.882C914.769 222.821 906.205 232.041 893.146 232.041C880.932 232.041 872.347 223.417 872.347 206.882V195.57C872.347 177.935 882.562 170.853 893.205 170.853ZM959.105 254.948V93.7455L991.628 90.9181V198.966L1023.9 147.481H1058.24L1024.58 200.804L1059.54 254.948H1025.09L991.628 202.374V254.948H959.105Z" fill="#1877F2"/>
</g>
<defs>
<clipPath id="clip0_58_4">
<rect width="1256" height="348.078" rx="35" fill="white"/>
</clipPath>
</defs>
</svg>
