<svg width="1256" height="349" viewBox="0 0 1256 349" fill="none" xmlns="http://www.w3.org/2000/svg">
<g clip-path="url(#clip0_58_7)">
<rect width="1256" height="348.078" rx="35" fill="white"/>
<path d="M716.263 222.817H715.983C716.123 222.817 716.123 222.957 716.263 222.957H716.402L716.263 222.817ZM716.263 222.957C715.144 222.957 712.206 223.517 709.129 223.517C699.477 223.517 696.12 219.04 696.12 213.166V174.28H715.843C716.962 174.28 717.801 173.301 717.801 171.902V150.78C717.801 149.661 716.822 148.682 715.843 148.682H696.12V122.385C696.12 121.406 695.421 120.847 694.302 120.847H667.445C666.326 120.847 665.767 121.546 665.767 122.385V149.382C665.767 149.382 652.199 152.739 651.36 152.879C650.38 153.158 649.821 153.998 649.821 154.977V171.902C649.821 173.301 650.8 174.28 651.919 174.28H665.627V215.124C665.627 245.477 686.748 248.555 701.156 248.555C707.73 248.555 715.703 246.456 716.962 245.757C717.661 245.477 718.081 244.638 718.081 243.799V225.195C718.081 224.076 717.382 223.237 716.263 222.957ZM1010.84 195.681C1010.84 173.161 1001.75 170.223 992.24 171.202C984.827 171.622 978.812 175.399 978.812 175.399V219.18C978.812 219.18 984.827 223.377 993.919 223.656C1006.65 223.936 1010.84 219.32 1010.84 195.681ZM1041.06 193.723C1041.06 236.385 1027.21 248.555 1003.15 248.555C982.729 248.555 971.818 238.204 971.818 238.204C971.818 238.204 971.399 243.939 970.699 244.638C970.28 245.337 969.72 245.617 968.881 245.617H950.557C949.298 245.617 948.179 244.638 948.179 243.519L948.459 105.46C948.459 104.341 949.438 103.362 950.557 103.362H976.994C978.113 103.362 979.092 104.341 979.092 105.46V152.319C979.092 152.319 989.303 145.745 1004.27 145.745L1004.13 145.465C1018.96 145.465 1041.06 151.06 1041.06 193.723ZM932.653 148.822H906.496C905.097 148.822 904.397 149.801 904.397 151.2V218.761C904.397 218.761 897.544 223.517 888.172 223.517C878.94 223.517 876.142 219.32 876.142 209.948V150.92C876.142 149.801 875.163 148.822 874.044 148.822H847.467C846.348 148.822 845.369 149.801 845.369 150.92V214.564C845.369 241.84 860.616 248.694 881.598 248.694C898.942 248.694 912.93 239.183 912.93 239.183C912.93 239.183 913.629 244.079 913.909 244.778C914.189 245.337 915.028 245.897 915.867 245.897H932.513C933.912 245.897 934.611 244.918 934.611 243.799L934.891 150.92C935.031 149.801 933.912 148.822 932.653 148.822ZM638.071 148.682H611.634C610.515 148.682 609.536 149.801 609.536 151.2V242.4C609.536 244.918 611.215 245.757 613.313 245.757H637.232C639.75 245.757 640.309 244.638 640.309 242.4V150.78C640.169 149.661 639.19 148.682 638.071 148.682ZM624.923 106.579C615.411 106.579 607.718 114.133 607.718 123.784C607.718 133.296 615.271 140.989 624.923 140.989C634.294 140.989 641.848 133.436 641.848 123.784C641.848 114.272 634.294 106.579 624.923 106.579ZM829.983 103.502H803.686C802.567 103.502 801.588 104.481 801.588 105.6V156.375H760.464V105.6C760.464 104.481 759.485 103.502 758.366 103.502H731.929C730.81 103.502 729.831 104.481 729.831 105.6V243.659C729.831 244.778 730.95 245.757 731.929 245.757H758.366C759.485 245.757 760.464 244.778 760.464 243.659V184.631H801.588L801.308 243.659C801.308 244.778 802.287 245.757 803.406 245.757H829.843C830.962 245.757 831.941 244.778 831.941 243.659V105.6C832.081 104.481 831.102 103.502 829.983 103.502ZM595.409 164.628V235.966C595.409 236.385 595.269 237.364 594.709 237.504C594.709 237.504 579.183 248.555 553.585 248.555C522.672 248.555 485.885 238.903 485.885 174.979C485.885 111.055 517.917 97.9068 549.249 98.0466C576.385 98.0466 587.296 104.201 588.974 105.32C589.394 106.02 589.674 106.439 589.674 106.999L584.638 129.239C584.638 130.358 583.519 131.757 582.12 131.337C577.644 129.939 570.93 127.281 555.124 127.281C536.8 127.281 517.217 132.456 517.217 173.72C517.217 214.844 535.821 219.74 549.249 219.74C560.719 219.74 564.775 218.341 564.775 218.341V189.806H546.452C545.053 189.806 544.074 188.827 544.074 187.708V164.768C544.074 163.649 545.053 162.67 546.452 162.67H593.031C594.429 162.53 595.409 163.509 595.409 164.628Z" fill="#24292E"/>
<path fill-rule="evenodd" clip-rule="evenodd" d="M308.24 62.6577C249.352 62.6577 201.654 110.356 201.654 169.244C201.654 216.383 232.147 256.248 274.53 270.375C279.845 271.215 281.944 268.137 281.944 265.34C281.944 262.822 281.804 254.43 281.804 245.477C255.087 250.373 248.093 238.903 245.995 233.028C244.736 229.951 239.561 220.439 235.085 217.922C231.308 215.963 225.993 210.928 234.945 210.788C243.337 210.648 249.352 218.481 251.31 221.698C260.962 237.784 276.209 233.308 282.363 230.51C283.342 223.656 286.14 218.901 289.217 216.243C265.578 213.585 240.68 204.353 240.68 163.649C240.68 152.039 244.876 142.388 251.59 134.974C250.471 132.317 246.834 121.406 252.709 106.719C252.709 106.719 261.661 103.922 282.083 117.63C290.616 115.252 299.708 113.993 308.66 113.993C317.752 113.993 326.704 115.252 335.237 117.63C355.659 103.782 364.471 106.719 364.471 106.719C370.346 121.406 366.569 132.317 365.59 134.974C372.444 142.388 376.501 151.899 376.501 163.649C376.501 204.493 351.602 213.585 327.823 216.243C331.74 219.6 335.097 225.895 335.097 235.966C335.097 250.233 334.957 261.703 334.957 265.2C334.957 267.998 336.915 271.355 342.231 270.236C385.593 255.548 414.827 214.844 414.827 169.104C414.827 110.356 367.129 62.6577 308.24 62.6577Z" fill="#24292E"/>
</g>
<defs>
<clipPath id="clip0_58_7">
<rect width="1256" height="348.078" rx="35" fill="white"/>
</clipPath>
</defs>
</svg>
