<svg width="1256" height="348" viewBox="0 0 1256 348" fill="none" xmlns="http://www.w3.org/2000/svg">
<rect width="1256" height="347.974" rx="35" fill="white"/>
<path d="M837.35 75.1574C837.35 65.9349 845.042 58.4541 854.532 58.4541H1052.68C1062.17 58.4541 1069.86 65.9349 1069.86 75.1574V274.928C1069.86 284.154 1062.17 291.631 1052.68 291.631H854.532C845.042 291.631 837.35 284.154 837.35 274.928V75.1574Z" fill="#006699"/>
<path fill-rule="evenodd" clip-rule="evenodd" d="M186.48 253.772H283.513V222.026H221.595V100.906H186.48V253.772Z" fill="black"/>
<path fill-rule="evenodd" clip-rule="evenodd" d="M332.639 253.772V148.483H297.521V253.772H332.639ZM315.08 134.107C327.327 134.107 334.949 126.022 334.949 115.911C334.721 105.582 327.327 97.7246 315.314 97.7246C303.299 97.7246 295.445 105.582 295.445 115.911C295.445 126.022 303.066 134.107 314.851 134.107H315.08Z" fill="black"/>
<path fill-rule="evenodd" clip-rule="evenodd" d="M348.945 253.772H384.063V194.972C384.063 191.826 384.292 188.682 385.22 186.432C387.758 180.148 393.536 173.636 403.237 173.636C415.946 173.636 421.03 183.295 421.03 197.44V253.772H456.145V193.399C456.145 161.058 438.818 146.009 415.713 146.009C396.769 146.009 388.451 156.562 383.829 163.75H384.064V148.483H348.945C349.407 158.363 348.945 253.772 348.945 253.772Z" fill="black"/>
<path fill-rule="evenodd" clip-rule="evenodd" d="M505.687 100.906H470.567V253.772H505.687V219.636L514.463 208.625L541.958 253.772H585.159L538.955 188.414L579.386 143.946H537.108C537.108 143.946 508.229 183.731 505.687 188.448V100.906Z" fill="black"/>
<path fill-rule="evenodd" clip-rule="evenodd" d="M679.075 209.853C679.536 207.149 680.231 201.961 680.231 196.097C680.231 168.878 666.366 141.248 629.865 141.248C590.818 141.248 572.798 172.022 572.798 199.933C572.798 234.455 594.746 256.016 633.098 256.016C648.347 256.016 662.438 253.772 673.991 249.055L669.369 225.943C659.898 229.074 650.194 230.638 638.182 230.638C621.778 230.638 607.455 223.93 606.298 209.629L679.075 209.847V209.853ZM606.069 186.177C606.993 177.191 613 163.937 628.017 163.937C643.955 163.937 647.654 178.092 647.654 186.177H606.069Z" fill="black"/>
<path fill-rule="evenodd" clip-rule="evenodd" d="M766.913 100.906V153.823H766.452C761.369 146.417 750.739 141.475 736.65 141.475C709.616 141.475 685.821 163.036 686.05 199.867C686.05 234.009 707.537 256.243 734.337 256.243C748.892 256.243 762.753 249.952 769.684 237.823H770.379L771.765 253.772H802.957C802.494 246.36 802.028 233.557 802.028 220.982V100.906H766.913ZM766.913 205.036C766.913 207.728 766.682 210.426 766.219 212.67C764.142 222.328 755.822 229.065 745.66 229.065C731.104 229.065 721.631 217.387 721.631 198.97C721.631 181.678 729.719 167.753 745.889 167.753C756.746 167.753 764.372 175.163 766.452 184.37C766.913 186.395 766.913 188.641 766.913 190.66V205.036Z" fill="black"/>
<path fill-rule="evenodd" clip-rule="evenodd" d="M907.83 253.648V148.355H872.712V253.648H907.83ZM890.271 133.979C902.518 133.979 910.14 125.894 910.14 115.79C909.912 105.458 902.518 97.597 890.503 97.597C878.49 97.597 870.636 105.458 870.636 115.79C870.636 125.894 878.257 133.979 890.042 133.979H890.271Z" fill="white"/>
<path fill-rule="evenodd" clip-rule="evenodd" d="M927.263 253.648H962.381V194.848C962.381 191.701 962.609 188.557 963.536 186.308C966.075 180.02 971.854 173.508 981.555 173.508C994.263 173.508 999.346 183.164 999.346 197.319V253.648H1034.46V193.274C1034.46 160.933 1017.14 145.884 994.031 145.884C975.085 145.884 966.768 156.437 962.147 163.625H962.382V148.355H927.264C927.724 158.235 927.263 253.648 927.263 253.648Z" fill="white"/>
</svg>
