<svg width="504" height="196" viewBox="0 0 504 196" fill="none" xmlns="http://www.w3.org/2000/svg">
<path d="M45.3863 49.2614C45.1136 46.5114 43.9431 44.375 41.8749 42.8523C39.8068 41.3295 36.9999 40.5682 33.4545 40.5682C31.0454 40.5682 29.0113 40.9091 27.3522 41.5909C25.6931 42.25 24.4204 43.1705 23.534 44.3523C22.6704 45.5341 22.2386 46.875 22.2386 48.375C22.1931 49.625 22.4545 50.7159 23.0227 51.6477C23.6136 52.5795 24.4204 53.3864 25.4431 54.0682C26.4659 54.7273 27.6477 55.3068 28.9886 55.8068C30.3295 56.2841 31.7613 56.6932 33.284 57.0341L39.5568 58.5341C42.6022 59.2159 45.3977 60.125 47.9431 61.2614C50.4886 62.3977 52.6931 63.7955 54.5568 65.4545C56.4204 67.1136 57.8636 69.0682 58.8863 71.3182C59.9318 73.5682 60.4659 76.1477 60.4886 79.0568C60.4659 83.3295 59.375 87.0341 57.2159 90.1705C55.0795 93.2841 51.9886 95.7045 47.9431 97.4318C43.9204 99.1364 39.0681 99.9886 33.3863 99.9886C27.7499 99.9886 22.8409 99.125 18.659 97.3977C14.4999 95.6705 11.2499 93.1136 8.90904 89.7273C6.59086 86.3182 5.37495 82.1023 5.26131 77.0795H19.5454C19.7045 79.4205 20.3749 81.375 21.5568 82.9432C22.7613 84.4886 24.3636 85.6591 26.3636 86.4545C28.3863 87.2273 30.6704 87.6136 33.2159 87.6136C35.7159 87.6136 37.8863 87.25 39.7272 86.5227C41.5909 85.7955 43.034 84.7841 44.0568 83.4886C45.0795 82.1932 45.5909 80.7045 45.5909 79.0227C45.5909 77.4545 45.125 76.1364 44.1931 75.0682C43.284 74 41.9431 73.0909 40.1704 72.3409C38.4204 71.5909 36.2727 70.9091 33.7272 70.2955L26.1249 68.3864C20.2386 66.9545 15.5909 64.7159 12.1818 61.6705C8.77268 58.625 7.07949 54.5227 7.10222 49.3636C7.07949 45.1364 8.20449 41.4432 10.4772 38.2841C12.7727 35.125 15.9204 32.6591 19.9204 30.8864C23.9204 29.1136 28.4659 28.2273 33.5568 28.2273C38.7386 28.2273 43.2613 29.1136 47.1249 30.8864C51.0113 32.6591 54.034 35.125 56.1931 38.2841C58.3522 41.4432 59.4659 45.1023 59.534 49.2614H45.3863ZM71.8576 99V29.1818H86.6189V57.9886H116.585V29.1818H131.312V99H116.585V70.1591H86.6189V99H71.8576ZM156.957 99H141.138L165.241 29.1818H184.263L208.332 99H192.513L175.025 45.1364H174.479L156.957 99ZM155.968 71.5568H193.332V83.0795H155.968V71.5568ZM222.07 29.1818L238.945 82.2273H239.593L256.502 29.1818H272.865L248.797 99H229.775L205.672 29.1818H222.07ZM297.47 29.1818V99H282.709V29.1818H297.47ZM335.805 99H311.055V29.1818H336.01C343.032 29.1818 349.078 30.5795 354.146 33.375C359.214 36.1477 363.112 40.1364 365.839 45.3409C368.589 50.5455 369.964 56.7727 369.964 64.0227C369.964 71.2955 368.589 77.5455 365.839 82.7727C363.112 88 359.191 92.0114 354.078 94.8068C348.987 97.6023 342.896 99 335.805 99ZM325.816 86.3523H335.191C339.555 86.3523 343.226 85.5795 346.203 84.0341C349.203 82.4659 351.453 80.0455 352.953 76.7727C354.476 73.4773 355.237 69.2273 355.237 64.0227C355.237 58.8636 354.476 54.6477 352.953 51.375C351.453 48.1023 349.214 45.6932 346.237 44.1477C343.26 42.6023 339.589 41.8295 335.226 41.8295H325.816V86.3523ZM397.1 29.1818V99H382.339V29.1818H397.1ZM469.083 29.1818V99H456.333L425.958 55.0568H425.446V99H410.685V29.1818H423.64L453.776 73.0909H454.39V29.1818H469.083ZM497.48 29.1818V99H482.719V29.1818H497.48Z" fill="white"/>
<path d="M141.75 185V158.818H159.392V163.382H147.286V169.621H158.485V174.185H147.286V180.436H159.444V185H141.75ZM164.333 185V158.818H169.869V170.362H170.214L179.636 158.818H186.271L176.555 170.541L186.386 185H179.764L172.592 174.236L169.869 177.56V185H164.333ZM194.206 185H188.275L197.313 158.818H204.446L213.472 185H207.54L200.982 164.801H200.777L194.206 185ZM193.836 174.709H207.847V179.03H193.836V174.709ZM239.062 158.818V185H234.281L222.891 168.521H222.699V185H217.163V158.818H222.021L233.322 175.284H233.553V158.818H239.062ZM248.689 185H242.757L251.795 158.818H258.929L267.954 185H262.023L255.464 164.801H255.26L248.689 185ZM248.318 174.709H262.329V179.03H248.318V174.709ZM267.44 158.818H273.64L279.61 170.094H279.866L285.836 158.818H292.036L282.487 175.744V185H276.989V175.744L267.44 158.818ZM297.441 185H291.509L300.547 158.818H307.681L316.706 185H310.774L304.216 164.801H304.012L297.441 185ZM297.07 174.709H311.081V179.03H297.07V174.709ZM320.398 185V158.818H325.933V170.362H326.278L335.7 158.818H342.335L332.619 170.541L342.45 185H335.828L328.656 174.236L325.933 177.56V185H320.398ZM345.758 185V158.818H363.4V163.382H351.293V169.621H362.492V174.185H351.293V180.436H363.451V185H345.758Z" fill="white"/>
<line y1="127.5" x2="504" y2="127.5" stroke="white" stroke-width="3"/>
</svg>
